Coordinates
version=1
nRows=21
nColumns=11
inDegrees=yes

Units are S.I. units (second, meters, Newtons, ...)
If the header above contains a line with 'inDegrees', this indicates whether rotational values are in degrees (yes) or radians (no).

endheader
time	pelvis_tilt	pelvis_tx	pelvis_ty	hip_flexion_l	hip_flexion_r	knee_angle_l	knee_angle_r	ankle_angle_l	ankle_angle_r	lumbar_extension
      3.48000000	      4.14720366	      0.51650552	      0.87493910	    -15.46548867	     31.05814792	    -21.30679626	    -23.64980114	     19.60703368	      3.21025611	    -15.98218604
      3.49000000	      3.43436250	      0.52961485	      0.87203420	    -14.65131822	     31.34472166	    -23.07724501	    -23.26484534	     19.04315051	     -0.22410579	    -14.91132470
      3.50000000	      2.75662985	      0.54269236	      0.86983282	    -13.77652069	     31.88922040	    -24.96013604	    -23.61999713	     18.12047104	     -1.67738966	    -13.90013327
      3.51000000	      2.14293539	      0.55528857	      0.86864191	    -12.83429248	     32.73202053	    -26.95524628	    -24.94881870	     16.96832873	     -3.54279563	    -13.08619285
      3.52000000	      1.52055674	      0.56760461	      0.86833089	    -11.74956869	     33.70319599	    -28.99374107	    -27.01614148	     15.11844600	     -4.52185605	    -12.35690894
      3.53000000	      1.11511293	      0.58024976	      0.86839383	    -10.82241274	     34.25864699	    -31.14705206	    -28.83126624	     13.46276609	     -4.90108489	    -11.81439221
      3.54000000	      1.00043648	      0.59298425	      0.86921876	    -10.15347524	     34.16890369	    -33.21218188	    -29.83155439	     11.55342211	     -5.79224161	    -11.57960257
      3.55000000	      0.91766079	      0.60569566	      0.87015002	     -9.39033821	     33.76773926	    -35.39131601	    -30.52770275	      9.36952485	     -5.54397783	    -11.35796632
      3.56000000	      0.63424887	      0.61814246	      0.87142880	     -8.28107378	     33.39021221	    -37.62531175	    -30.98844254	      6.89200447	     -4.78455941	    -10.91427097
      3.57000000	      0.40595547	      0.63041863	      0.87304981	     -7.14798918	     32.87974936	    -39.81671922	    -31.26590561	      4.20443280	     -4.14277788	    -10.54444440
      3.58000000	      0.28111418	      0.64254369	      0.87512179	     -6.08901084	     32.14893726	    -41.85007378	    -31.34877245	      1.28881950	     -3.56343595	    -10.31442745
      3.59000000	      0.08854006	      0.65448575	      0.87755521	     -4.87962555	     31.45066099	    -43.73519860	    -31.33474955	     -1.98596915	     -2.86622374	    -10.01283988
      3.60000000	     -0.11301672	      0.66612219	      0.88032016	     -3.65236703	     30.75144014	    -45.36195846	    -31.24614339	     -5.02175323	     -2.23883595	     -9.72495792
      3.61000000	     -0.29590847	      0.67762675	      0.88320765	     -2.39102129	     30.06940562	    -46.88425369	    -31.20967025	     -7.99317534	     -1.58179443	     -9.43584820
      3.62000000	     -0.47616503	      0.68896436	      0.88616802	     -1.12780424	     29.29188321	    -48.24694320	    -30.97624648	    -10.87280139	     -1.02233992	     -9.14302061
      3.63000000	     -0.56482971	      0.70018632	      0.88909078	      0.05384714	     28.45244161	    -49.50127241	    -30.78255974	    -13.66079484	     -0.42576209	     -8.95291325
      3.64000000	     -0.63090254	      0.71144349	      0.89195644	      1.20876536	     27.49036620	    -50.62867916	    -30.40693810	    -15.79643472	      0.23789948	     -8.75997634
      3.65000000	     -0.50324577	      0.72265541	      0.89504814	      2.15796894	     26.40960988	    -51.64446692	    -30.19031171	    -17.22696925	      0.82338762	     -8.78828497
      3.66000000	     -0.24394523	      0.73401503	      0.89825416	      2.94604193	     25.06556564	    -52.54691918	    -29.77247377	    -17.82711064	      1.25310316	     -8.96003475
      3.67000000	     -0.03176753	      0.74517266	      0.90136730	      3.83000350	     23.71085375	    -53.37899497	    -29.20739024	    -18.41972152	      1.74150725	     -9.07661421
      3.68000000	      0.16523507	      0.75626176	      0.90439925	      4.75354562	     22.43694453	    -54.13347520	    -28.73679286	    -19.07221959	      2.18872792	     -9.20010692
